<?xml version="1.0" encoding="UTF-8" standalone="no"?>
<!DOCTYPE svg PUBLIC "-//W3C//DTD SVG 1.1//EN" "http://www.w3.org/Graphics/SVG/1.1/DTD/svg11.dtd">
<svg version="1.1" xmlns="http://www.w3.org/2000/svg" xmlns:xlink="http://www.w3.org/1999/xlink" preserveAspectRatio="xMidYMid meet" viewBox="0 0 640 640" width="640" height="640"><defs><path d="M416 73L595 73L595 640L416 640L416 73Z" id="i6wyqsQV"></path><linearGradient id="gradientdYArGKpGE" gradientUnits="userSpaceOnUse" x1="510.35" y1="336.21" x2="500.97" y2="346.42"><stop style="stop-color: #eaeaea;stop-opacity: 1" offset="0%"></stop><stop style="stop-color: #f4f4f4;stop-opacity: 1" offset="95.105%"></stop></linearGradient><path d="M0 73L416 73L416 640L0 640L0 73Z" id="d13sBAeggX"></path><linearGradient id="gradienta3sb5sEm9" gradientUnits="userSpaceOnUse" x1="268.87" y1="73" x2="147.13" y2="640"><stop style="stop-color: #ffffff;stop-opacity: 1" offset="0%"></stop><stop style="stop-color: #fefefe;stop-opacity: 1" offset="100%"></stop></linearGradient><path d="M0 0L595 0L595 74L0 74L0 0Z" id="c5wKpXpgL"></path><linearGradient id="gradientg2MFaojZPE" gradientUnits="userSpaceOnUse" x1="285.6" y1="36.61" x2="277.15" y2="37.57"><stop style="stop-color: #373d48;stop-opacity: 1" offset="0%"></stop><stop style="stop-color: #535965;stop-opacity: 1" offset="100%"></stop></linearGradient><path d="M481 141C482.33 141 483 141.67 483 143C483 147.8 483 150.47 483 151C483 152.33 482.33 153 481 153C452.8 153 437.13 153 434 153C432.67 153 432 152.33 432 151C432 146.2 432 143.53 432 143C432 141.67 432.67 141 434 141C462.2 141 477.87 141 481 141Z" id="bUFfzATV"></path><linearGradient id="gradientdmpA6IWv7" gradientUnits="userSpaceOnUse" x1="483" y1="147.33" x2="432" y2="146.67"><stop style="stop-color: #bababa;stop-opacity: 1" offset="0%"></stop><stop style="stop-color: #c9c9c9;stop-opacity: 1" offset="100%"></stop><stop style="stop-color: #c7c7c7;stop-opacity: 1" offset="100%"></stop></linearGradient><path d="M510 114C511.33 114 512 114.67 512 116C512 123.2 512 127.2 512 128C512 129.33 511.33 130 510 130C464.4 130 439.07 130 434 130C432.67 130 432 129.33 432 128C432 120.8 432 116.8 432 116C432 114.67 432.67 114 434 114C479.6 114 504.93 114 510 114Z" id="k22iacshzG"></path><linearGradient id="gradientbbL2ehhgc" gradientUnits="userSpaceOnUse" x1="435.08" y1="121.7" x2="510.43" y2="122.31"><stop style="stop-color: #d7d7d7;stop-opacity: 1" offset="0%"></stop><stop style="stop-color: #c6c6c6;stop-opacity: 1" offset="100%"></stop></linearGradient><path d="M494 192C495.33 192 496 192.67 496 194C496 198.8 496 201.47 496 202C496 203.33 495.33 204 494 204C458 204 438 204 434 204C432.67 204 432 203.33 432 202C432 197.2 432 194.53 432 194C432 192.67 432.67 192 434 192C470 192 490 192 494 192Z" id="djHlzRAv"></path><linearGradient id="gradienta6Q3516d5" gradientUnits="userSpaceOnUse" x1="496" y1="198.21" x2="432" y2="197.79"><stop style="stop-color: #bababa;stop-opacity: 1" offset="0%"></stop><stop style="stop-color: #c9c9c9;stop-opacity: 1" offset="100%"></stop><stop style="stop-color: #c7c7c7;stop-opacity: 1" offset="100%"></stop></linearGradient><path d="M473 233C474.33 233 475 233.67 475 235C475 239.8 475 242.47 475 243C475 244.33 474.33 245 473 245C449.6 245 436.6 245 434 245C432.67 245 432 244.33 432 243C432 238.2 432 235.53 432 235C432 233.67 432.67 233 434 233C457.4 233 470.4 233 473 233Z" id="a1BFzM2XvY"></path><linearGradient id="gradientaD5NsfWpu" gradientUnits="userSpaceOnUse" x1="475" y1="239.47" x2="432" y2="238.53"><stop style="stop-color: #bababa;stop-opacity: 1" offset="0%"></stop><stop style="stop-color: #c9c9c9;stop-opacity: 1" offset="100%"></stop><stop style="stop-color: #c7c7c7;stop-opacity: 1" offset="100%"></stop></linearGradient><path d="M501 274C502.33 274 503 274.67 503 276C503 280.8 503 283.47 503 284C503 285.33 502.33 286 501 286C460.8 286 438.47 286 434 286C432.67 286 432 285.33 432 284C432 279.2 432 276.53 432 276C432 274.67 432.67 274 434 274C474.2 274 496.53 274 501 274Z" id="b1p2ojLo6w"></path><linearGradient id="gradienta1kH0tKqy" gradientUnits="userSpaceOnUse" x1="503" y1="280.17" x2="432" y2="279.83"><stop style="stop-color: #bababa;stop-opacity: 1" offset="0%"></stop><stop style="stop-color: #c9c9c9;stop-opacity: 1" offset="100%"></stop><stop style="stop-color: #c7c7c7;stop-opacity: 1" offset="100%"></stop></linearGradient><path d="M532 355C533.33 355 534 355.67 534 357C534 361.8 534 364.47 534 365C534 366.33 533.33 367 532 367C473.2 367 440.53 367 434 367C432.67 367 432 366.33 432 365C432 360.2 432 357.53 432 357C432 355.67 432.67 355 434 355C492.8 355 525.47 355 532 355Z" id="gngpNevpx"></path><linearGradient id="gradientbH2ec8VTA" gradientUnits="userSpaceOnUse" x1="534" y1="361.08" x2="432" y2="360.92"><stop style="stop-color: #bababa;stop-opacity: 1" offset="0%"></stop><stop style="stop-color: #c9c9c9;stop-opacity: 1" offset="100%"></stop><stop style="stop-color: #c7c7c7;stop-opacity: 1" offset="100%"></stop></linearGradient><path d="M470 371C471.33 371 472 371.67 472 373C472 377.8 472 380.47 472 381C472 382.33 471.33 383 470 383C448.4 383 436.4 383 434 383C432.67 383 432 382.33 432 381C432 376.2 432 373.53 432 373C432 371.67 432.67 371 434 371C455.6 371 467.6 371 470 371Z" id="c2gILPQ19W"></path><linearGradient id="gradientehv8IgNn5" gradientUnits="userSpaceOnUse" x1="472" y1="377.54" x2="432" y2="376.46"><stop style="stop-color: #bababa;stop-opacity: 1" offset="0%"></stop><stop style="stop-color: #c9c9c9;stop-opacity: 1" offset="100%"></stop><stop style="stop-color: #c7c7c7;stop-opacity: 1" offset="100%"></stop></linearGradient><path d="M519 387C520.33 387 521 387.67 521 389C521 393.8 521 396.47 521 397C521 398.33 520.33 399 519 399C468 399 439.67 399 434 399C432.67 399 432 398.33 432 397C432 392.2 432 389.53 432 389C432 387.67 432.67 387 434 387C485 387 513.33 387 519 387Z" id="aAKBeHDZf"></path><linearGradient id="gradientb2Qr1hz7VE" gradientUnits="userSpaceOnUse" x1="521" y1="393.11" x2="432" y2="392.89"><stop style="stop-color: #bababa;stop-opacity: 1" offset="0%"></stop><stop style="stop-color: #c9c9c9;stop-opacity: 1" offset="100%"></stop><stop style="stop-color: #c7c7c7;stop-opacity: 1" offset="100%"></stop></linearGradient><path d="M510 403C511.33 403 512 403.67 512 405C512 409.8 512 412.47 512 413C512 414.33 511.33 415 510 415C464.4 415 439.07 415 434 415C432.67 415 432 414.33 432 413C432 408.2 432 405.53 432 405C432 403.67 432.67 403 434 403C479.6 403 504.93 403 510 403Z" id="aw6umVE9g"></path><linearGradient id="gradientaAgVNEywG" gradientUnits="userSpaceOnUse" x1="512" y1="409.14" x2="432" y2="408.87"><stop style="stop-color: #bababa;stop-opacity: 1" offset="0%"></stop><stop style="stop-color: #c9c9c9;stop-opacity: 1" offset="100%"></stop><stop style="stop-color: #c7c7c7;stop-opacity: 1" offset="100%"></stop></linearGradient><path d="M562 419C563.33 419 564 419.67 564 421C564 425.8 564 428.47 564 429C564 430.33 563.33 431 562 431C485.2 431 442.53 431 434 431C432.67 431 432 430.33 432 429C432 424.2 432 421.53 432 421C432 419.67 432.67 419 434 419C510.8 419 553.47 419 562 419Z" id="aalnWPHMy"></path><linearGradient id="gradienta66PfOchC" gradientUnits="userSpaceOnUse" x1="564" y1="425.05" x2="432" y2="424.95"><stop style="stop-color: #bababa;stop-opacity: 1" offset="0%"></stop><stop style="stop-color: #c9c9c9;stop-opacity: 1" offset="100%"></stop><stop style="stop-color: #c7c7c7;stop-opacity: 1" offset="100%"></stop></linearGradient><path d="M532 435C533.33 435 534 435.67 534 437C534 441.8 534 444.47 534 445C534 446.33 533.33 447 532 447C473.2 447 440.53 447 434 447C432.67 447 432 446.33 432 445C432 440.2 432 437.53 432 437C432 435.67 432.67 435 434 435C492.8 435 525.47 435 532 435Z" id="bXA5udWKk"></path><linearGradient id="gradientgPaVpolyJ" gradientUnits="userSpaceOnUse" x1="534" y1="441.08" x2="432" y2="440.92"><stop style="stop-color: #bababa;stop-opacity: 1" offset="0%"></stop><stop style="stop-color: #c9c9c9;stop-opacity: 1" offset="100%"></stop><stop style="stop-color: #c7c7c7;stop-opacity: 1" offset="100%"></stop></linearGradient><path d="M532 530C533.33 530 534 530.67 534 532C534 536.8 534 539.47 534 540C534 541.33 533.33 542 532 542C473.2 542 440.53 542 434 542C432.67 542 432 541.33 432 540C432 535.2 432 532.53 432 532C432 530.67 432.67 530 434 530C492.8 530 525.47 530 532 530Z" id="b60Qj5cs4B"></path><linearGradient id="gradientb2hj7dLrkP" gradientUnits="userSpaceOnUse" x1="534" y1="536.08" x2="432" y2="535.92"><stop style="stop-color: #bababa;stop-opacity: 1" offset="0%"></stop><stop style="stop-color: #c9c9c9;stop-opacity: 1" offset="100%"></stop><stop style="stop-color: #c7c7c7;stop-opacity: 1" offset="100%"></stop></linearGradient><path d="M532 567C533.33 567 534 567.67 534 569C534 573.8 534 576.47 534 577C534 578.33 533.33 579 532 579C473.2 579 440.53 579 434 579C432.67 579 432 578.33 432 577C432 572.2 432 569.53 432 569C432 567.67 432.67 567 434 567C492.8 567 525.47 567 532 567Z" id="g2sEQDGGJ"></path><linearGradient id="gradientczmfcpZme" gradientUnits="userSpaceOnUse" x1="534" y1="573.08" x2="432" y2="572.92"><stop style="stop-color: #bababa;stop-opacity: 1" offset="0%"></stop><stop style="stop-color: #c9c9c9;stop-opacity: 1" offset="100%"></stop><stop style="stop-color: #c7c7c7;stop-opacity: 1" offset="100%"></stop></linearGradient><path d="M532 604C533.33 604 534 604.67 534 606C534 610.8 534 613.47 534 614C534 615.33 533.33 616 532 616C473.2 616 440.53 616 434 616C432.67 616 432 615.33 432 614C432 609.2 432 606.53 432 606C432 604.67 432.67 604 434 604C492.8 604 525.47 604 532 604Z" id="dcvfB0zh2"></path><linearGradient id="gradienta4FHIZD3XV" gradientUnits="userSpaceOnUse" x1="534" y1="610.08" x2="432" y2="609.92"><stop style="stop-color: #bababa;stop-opacity: 1" offset="0%"></stop><stop style="stop-color: #c9c9c9;stop-opacity: 1" offset="100%"></stop><stop style="stop-color: #c7c7c7;stop-opacity: 1" offset="100%"></stop></linearGradient><path d="M557.5 548C558.5 548 559 548.5 559 549.5C559 549.5 559 549.5 559 549.5C559 550.5 558.5 551 557.5 551C483.1 551 441.77 551 433.5 551C432.5 551 432 550.5 432 549.5C432 549.5 432 549.5 432 549.5C432 548.5 432.5 548 433.5 548C507.9 548 549.23 548 557.5 548Z" id="b1e4iquiXt"></path><linearGradient id="gradienta34u3pNhca" gradientUnits="userSpaceOnUse" x1="432" y1="549.5" x2="432" y2="549.5"><stop style="stop-color: #989898;stop-opacity: 1" offset="0%"></stop><stop style="stop-color: #909090;stop-opacity: 1" offset="100%"></stop></linearGradient><path d="M557.5 585C558.5 585 559 585.5 559 586.5C559 586.5 559 586.5 559 586.5C559 587.5 558.5 588 557.5 588C483.1 588 441.77 588 433.5 588C432.5 588 432 587.5 432 586.5C432 586.5 432 586.5 432 586.5C432 585.5 432.5 585 433.5 585C507.9 585 549.23 585 557.5 585Z" id="baD1mNziG"></path><linearGradient id="gradienta6qot1YrL3" gradientUnits="userSpaceOnUse" x1="432" y1="586.5" x2="432" y2="586.5"><stop style="stop-color: #989898;stop-opacity: 1" offset="0%"></stop><stop style="stop-color: #909090;stop-opacity: 1" offset="100%"></stop></linearGradient><path d="M557.5 622C558.5 622 559 622.5 559 623.5C559 623.5 559 623.5 559 623.5C559 624.5 558.5 625 557.5 625C483.1 625 441.77 625 433.5 625C432.5 625 432 624.5 432 623.5C432 623.5 432 623.5 432 623.5C432 622.5 432.5 622 433.5 622C507.9 622 549.23 622 557.5 622Z" id="a1h4RW2994"></path><linearGradient id="gradientk4FAfSaFlL" gradientUnits="userSpaceOnUse" x1="432" y1="623.5" x2="432" y2="623.5"><stop style="stop-color: #989898;stop-opacity: 1" offset="0%"></stop><stop style="stop-color: #909090;stop-opacity: 1" offset="100%"></stop></linearGradient><path d="M519 159C520.33 159 521 159.67 521 161C521 170.6 521 175.93 521 177C521 178.33 520.33 179 519 179C468 179 439.67 179 434 179C432.67 179 432 178.33 432 177C432 167.4 432 162.07 432 161C432 159.67 432.67 159 434 159C485 159 513.33 159 519 159Z" id="b3upFmmueC"></path><linearGradient id="gradientaA2WDUwV3" gradientUnits="userSpaceOnUse" x1="521" y1="169.51" x2="432" y2="168.5"><stop style="stop-color: #bababa;stop-opacity: 1" offset="0%"></stop><stop style="stop-color: #c9c9c9;stop-opacity: 1" offset="100%"></stop><stop style="stop-color: #c7c7c7;stop-opacity: 1" offset="100%"></stop></linearGradient><path d="M562 210C563.33 210 564 210.67 564 212C564 216.8 564 219.47 564 220C564 221.33 563.33 222 562 222C485.2 222 442.53 222 434 222C432.67 222 432 221.33 432 220C432 215.2 432 212.53 432 212C432 210.67 432.67 210 434 210C510.8 210 553.47 210 562 210Z" id="f3GWrXaibN"></path><linearGradient id="gradientbjbVaqFNi" gradientUnits="userSpaceOnUse" x1="564" y1="216.05" x2="432" y2="215.95"><stop style="stop-color: #bababa;stop-opacity: 1" offset="0%"></stop><stop style="stop-color: #c9c9c9;stop-opacity: 1" offset="100%"></stop><stop style="stop-color: #c7c7c7;stop-opacity: 1" offset="100%"></stop></linearGradient><path d="M528 251C529.33 251 530 251.67 530 253C530 257.8 530 260.47 530 261C530 262.33 529.33 263 528 263C471.6 263 440.27 263 434 263C432.67 263 432 262.33 432 261C432 256.2 432 253.53 432 253C432 251.67 432.67 251 434 251C490.4 251 521.73 251 528 251Z" id="mHME88BAK"></path><linearGradient id="gradienta4eKsx8sH" gradientUnits="userSpaceOnUse" x1="530" y1="257.09" x2="432" y2="256.91"><stop style="stop-color: #bababa;stop-opacity: 1" offset="0%"></stop><stop style="stop-color: #c9c9c9;stop-opacity: 1" offset="100%"></stop><stop style="stop-color: #c7c7c7;stop-opacity: 1" offset="100%"></stop></linearGradient><path d="M510 328C511.33 328 512 328.67 512 330C512 337.2 512 341.2 512 342C512 343.33 511.33 344 510 344C464.4 344 439.07 344 434 344C432.67 344 432 343.33 432 342C432 334.8 432 330.8 432 330C432 328.67 432.67 328 434 328C479.6 328 504.93 328 510 328Z" id="aHCpLpKXH"></path><linearGradient id="gradienta43Cyppsec" gradientUnits="userSpaceOnUse" x1="435.08" y1="335.7" x2="510.43" y2="336.31"><stop style="stop-color: #d7d7d7;stop-opacity: 1" offset="0%"></stop><stop style="stop-color: #c6c6c6;stop-opacity: 1" offset="100%"></stop></linearGradient><path d="M574 503C575.33 503 576 503.67 576 505C576 512.2 576 516.2 576 517C576 518.33 575.33 519 574 519C490 519 443.33 519 434 519C432.67 519 432 518.33 432 517C432 509.8 432 505.8 432 505C432 503.67 432.67 503 434 503C518 503 564.67 503 574 503Z" id="cJkiAYxIF"></path><linearGradient id="gradienta1BaItEYq" gradientUnits="userSpaceOnUse" x1="437.54" y1="510.91" x2="573.17" y2="511.09"><stop style="stop-color: #d7d7d7;stop-opacity: 1" offset="0%"></stop><stop style="stop-color: #c6c6c6;stop-opacity: 1" offset="100%"></stop></linearGradient><path d="M181 178C182.33 178 183 178.67 183 180C183 190.8 183 196.8 183 198C183 199.33 182.33 200 181 200C87.4 200 35.4 200 25 200C23.67 200 23 199.33 23 198C23 187.2 23 181.2 23 180C23 178.67 23.67 178 25 178C118.6 178 170.6 178 181 178Z" id="bogC4EnYU"></path><linearGradient id="gradientbqgOQaPRW" gradientUnits="userSpaceOnUse" x1="23" y1="188.79" x2="181.32" y2="189.2"><stop style="stop-color: #dcd7d7;stop-opacity: 1" offset="0%"></stop><stop style="stop-color: #cbcbcb;stop-opacity: 1" offset="100%"></stop></linearGradient><path d="M239 15C240.33 15 241 15.67 241 17C241 27.8 241 33.8 241 35C241 36.33 240.33 37 239 37C110.6 37 39.27 37 25 37C23.67 37 23 36.33 23 35C23 24.2 23 18.2 23 17C23 15.67 23.67 15 25 15C153.4 15 224.73 15 239 15Z" id="aJUmj8Sho"></path><linearGradient id="gradienta2njHk66jy" gradientUnits="userSpaceOnUse" x1="23" y1="25.89" x2="238.71" y2="26.11"><stop style="stop-color: #ffffff;stop-opacity: 1" offset="0%"></stop><stop style="stop-color: #e5e5e5;stop-opacity: 1" offset="100%"></stop></linearGradient><path d="M184 45C185.33 45 186 45.67 186 47C186 53.6 186 57.27 186 58C186 59.33 185.33 60 184 60C88.6 60 35.6 60 25 60C23.67 60 23 59.33 23 58C23 51.4 23 47.73 23 47C23 45.67 23.67 45 25 45C120.4 45 173.4 45 184 45Z" id="fpoJJcL9A"></path><linearGradient id="gradientfmb0oYr4x" gradientUnits="userSpaceOnUse" x1="23" y1="52.44" x2="184.29" y2="52.56"><stop style="stop-color: #ffffff;stop-opacity: 1" offset="0%"></stop><stop style="stop-color: #e5e5e5;stop-opacity: 1" offset="100%"></stop></linearGradient><path d="M176 509C177.33 509 178 509.67 178 511C178 521.8 178 527.8 178 529C178 530.33 177.33 531 176 531C85.4 531 35.07 531 25 531C23.67 531 23 530.33 23 529C23 518.2 23 512.2 23 511C23 509.67 23.67 509 25 509C115.6 509 165.93 509 176 509Z" id="c2kRBFVxq0"></path><linearGradient id="gradientb3bXVTzEPF" gradientUnits="userSpaceOnUse" x1="23" y1="519.78" x2="176.37" y2="520.22"><stop style="stop-color: #dcd7d7;stop-opacity: 1" offset="0%"></stop><stop style="stop-color: #cbcbcb;stop-opacity: 1" offset="100%"></stop></linearGradient><path d="M161 230C162.33 230 163 230.67 163 232C163 239.2 163 243.2 163 244C163 245.33 162.33 246 161 246C79.4 246 34.07 246 25 246C23.67 246 23 245.33 23 244C23 236.8 23 232.8 23 232C23 230.67 23.67 230 25 230C106.6 230 151.93 230 161 230Z" id="gQuW4675P"></path><linearGradient id="gradientf8tICJLr7N" gradientUnits="userSpaceOnUse" x1="23" y1="237.9" x2="161.53" y2="238.1"><stop style="stop-color: #e3dede;stop-opacity: 1" offset="0%"></stop><stop style="stop-color: #dedede;stop-opacity: 1" offset="100%"></stop></linearGradient><path d="M141 549C142.33 549 143 549.67 143 551C143 558.2 143 562.2 143 563C143 564.33 142.33 565 141 565C71.4 565 32.73 565 25 565C23.67 565 23 564.33 23 563C23 555.8 23 551.8 23 551C23 549.67 23.67 549 25 549C94.6 549 133.27 549 141 549Z" id="ddqh1DhBK"></path><linearGradient id="gradiente2jdOlvoU" gradientUnits="userSpaceOnUse" x1="23" y1="556.86" x2="141.74" y2="557.14"><stop style="stop-color: #e3dede;stop-opacity: 1" offset="0%"></stop><stop style="stop-color: #dedede;stop-opacity: 1" offset="100%"></stop></linearGradient><path d="M217 360C218.33 360 219 360.67 219 362C219 369.2 219 373.2 219 374C219 375.33 218.33 376 217 376C101.8 376 37.8 376 25 376C23.67 376 23 375.33 23 374C23 366.8 23 362.8 23 362C23 360.67 23.67 360 25 360C140.2 360 204.2 360 217 360Z" id="dJA6Sjowf"></path><linearGradient id="gradientcMXmxcbN5" gradientUnits="userSpaceOnUse" x1="23" y1="367.95" x2="216.94" y2="368.05"><stop style="stop-color: #e3dede;stop-opacity: 1" offset="0%"></stop><stop style="stop-color: #dedede;stop-opacity: 1" offset="100%"></stop></linearGradient><path d="M383 94C384.33 94 385 94.67 385 96C385 100.2 385 102.53 385 103C385 104.33 384.33 105 383 105C168.2 105 48.87 105 25 105C23.67 105 23 104.33 23 103C23 98.8 23 96.47 23 96C23 94.67 23.67 94 25 94C239.8 94 359.13 94 383 94Z" id="a2J39sDmH"></path><linearGradient id="gradienta1nRAdhaQ" gradientUnits="userSpaceOnUse" x1="23" y1="99.49" x2="381.2" y2="99.5"><stop style="stop-color: #e9e6e6;stop-opacity: 1" offset="0%"></stop><stop style="stop-color: #e6e6e6;stop-opacity: 1" offset="100%"></stop></linearGradient><path d="M390 109C391.33 109 392 109.67 392 111C392 115.2 392 117.53 392 118C392 119.33 391.33 120 390 120C171 120 49.33 120 25 120C23.67 120 23 119.33 23 118C23 113.8 23 111.47 23 111C23 109.67 23.67 109 25 109C244 109 365.67 109 390 109Z" id="cqzfp6C"></path><linearGradient id="gradientaoqMl8OEa" gradientUnits="userSpaceOnUse" x1="23" y1="114.5" x2="388.13" y2="114.5"><stop style="stop-color: #e9e6e6;stop-opacity: 1" offset="0%"></stop><stop style="stop-color: #e6e6e6;stop-opacity: 1" offset="100%"></stop></linearGradient><path d="M382 279C383.33 279 384 279.67 384 281C384 285.2 384 287.53 384 288C384 289.33 383.33 290 382 290C185.8 290 76.8 290 55 290C53.67 290 53 289.33 53 288C53 283.8 53 281.47 53 281C53 279.67 53.67 279 55 279C251.2 279 360.2 279 382 279Z" id="aAbviU9Rn"></path><linearGradient id="gradienta1q3ECQCJJ" gradientUnits="userSpaceOnUse" x1="53" y1="284.49" x2="380.52" y2="284.51"><stop style="stop-color: #e9e6e6;stop-opacity: 1" offset="0%"></stop><stop style="stop-color: #e6e6e6;stop-opacity: 1" offset="100%"></stop></linearGradient><path d="M326 582C327.33 582 328 582.67 328 584C328 588.2 328 590.53 328 591C328 592.33 327.33 593 326 593C163.4 593 73.07 593 55 593C53.67 593 53 592.33 53 591C53 586.8 53 584.47 53 584C53 582.67 53.67 582 55 582C217.6 582 307.93 582 326 582Z" id="a41C6PXS8"></path><linearGradient id="gradientj5NufuSQf0" gradientUnits="userSpaceOnUse" x1="53" y1="587.49" x2="325.11" y2="587.51"><stop style="stop-color: #e9e6e6;stop-opacity: 1" offset="0%"></stop><stop style="stop-color: #e6e6e6;stop-opacity: 1" offset="100%"></stop></linearGradient><path d="M382 409C383.33 409 384 409.67 384 411C384 415.2 384 417.53 384 418C384 419.33 383.33 420 382 420C185.8 420 76.8 420 55 420C53.67 420 53 419.33 53 418C53 413.8 53 411.47 53 411C53 409.67 53.67 409 55 409C251.2 409 360.2 409 382 409Z" id="b54ThMggof"></path><linearGradient id="gradiente6m8yMT87" gradientUnits="userSpaceOnUse" x1="53" y1="414.49" x2="380.52" y2="414.51"><stop style="stop-color: #e9e6e6;stop-opacity: 1" offset="0%"></stop><stop style="stop-color: #e6e6e6;stop-opacity: 1" offset="100%"></stop></linearGradient><path d="M126 296C127.33 296 128 296.67 128 298C128 302.2 128 304.53 128 305C128 306.33 127.33 307 126 307C83.4 307 59.73 307 55 307C53.67 307 53 306.33 53 305C53 300.8 53 298.47 53 298C53 296.67 53.67 296 55 296C97.6 296 121.27 296 126 296Z" id="eR1uR16uI"></path><linearGradient id="gradientl15gyMi6t0" gradientUnits="userSpaceOnUse" x1="53" y1="301.38" x2="127.21" y2="301.62"><stop style="stop-color: #e9e6e6;stop-opacity: 1" offset="0%"></stop><stop style="stop-color: #e6e6e6;stop-opacity: 1" offset="100%"></stop></linearGradient><path d="M374 599C375.33 599 376 599.67 376 601C376 605.2 376 607.53 376 608C376 609.33 375.33 610 374 610C182.6 610 76.27 610 55 610C53.67 610 53 609.33 53 608C53 603.8 53 601.47 53 601C53 599.67 53.67 599 55 599C246.4 599 352.73 599 374 599Z" id="b4VUmHmmAR"></path><linearGradient id="gradientb1UrA6mjIo" gradientUnits="userSpaceOnUse" x1="53" y1="604.49" x2="372.61" y2="604.51"><stop style="stop-color: #e9e6e6;stop-opacity: 1" offset="0%"></stop><stop style="stop-color: #e6e6e6;stop-opacity: 1" offset="100%"></stop></linearGradient><path d="M300 318C301.33 318 302 318.67 302 320C302 324.2 302 326.53 302 327C302 328.33 301.33 329 300 329C153 329 71.33 329 55 329C53.67 329 53 328.33 53 327C53 322.8 53 320.47 53 320C53 318.67 53.67 318 55 318C202 318 283.67 318 300 318Z" id="edl301Rwg"></path><linearGradient id="gradientb70AIUgAL" gradientUnits="userSpaceOnUse" x1="53" y1="323.49" x2="299.39" y2="323.51"><stop style="stop-color: #e9e6e6;stop-opacity: 1" offset="0%"></stop><stop style="stop-color: #e6e6e6;stop-opacity: 1" offset="100%"></stop></linearGradient><path d="M264 621C265.33 621 266 621.67 266 623C266 627.2 266 629.53 266 630C266 631.33 265.33 632 264 632C138.6 632 68.93 632 55 632C53.67 632 53 631.33 53 630C53 625.8 53 623.47 53 623C53 621.67 53.67 621 55 621C180.4 621 250.07 621 264 621Z" id="b8gq7DkOhX"></path><linearGradient id="gradienta454X56fqv" gradientUnits="userSpaceOnUse" x1="53" y1="626.49" x2="263.76" y2="626.51"><stop style="stop-color: #e9e6e6;stop-opacity: 1" offset="0%"></stop><stop style="stop-color: #e6e6e6;stop-opacity: 1" offset="100%"></stop></linearGradient><path d="M345 431C346.33 431 347 431.67 347 433C347 437.2 347 439.53 347 440C347 441.33 346.33 442 345 442C171 442 74.33 442 55 442C53.67 442 53 441.33 53 440C53 435.8 53 433.47 53 433C53 431.67 53.67 431 55 431C229 431 325.67 431 345 431Z" id="dHrj1ThiG"></path><linearGradient id="gradienti3ylqFjLz4" gradientUnits="userSpaceOnUse" x1="53" y1="436.49" x2="343.91" y2="436.51"><stop style="stop-color: #e9e6e6;stop-opacity: 1" offset="0%"></stop><stop style="stop-color: #e6e6e6;stop-opacity: 1" offset="100%"></stop></linearGradient><path d="M300 453C301.33 453 302 453.67 302 455C302 459.2 302 461.53 302 462C302 463.33 301.33 464 300 464C153 464 71.33 464 55 464C53.67 464 53 463.33 53 462C53 457.8 53 455.47 53 455C53 453.67 53.67 453 55 453C202 453 283.67 453 300 453Z" id="d1YIfR91xp"></path><linearGradient id="gradientaq0726Wbn" gradientUnits="userSpaceOnUse" x1="53" y1="458.49" x2="299.39" y2="458.51"><stop style="stop-color: #e9e6e6;stop-opacity: 1" offset="0%"></stop><stop style="stop-color: #e6e6e6;stop-opacity: 1" offset="100%"></stop></linearGradient><path d="M374 124C375.33 124 376 124.67 376 126C376 130.2 376 132.53 376 133C376 134.33 375.33 135 374 135C164.6 135 48.27 135 25 135C23.67 135 23 134.33 23 133C23 128.8 23 126.47 23 126C23 124.67 23.67 124 25 124C234.4 124 350.73 124 374 124Z" id="f58OfBymya"></path><linearGradient id="gradientaA8XqQ3Ws" gradientUnits="userSpaceOnUse" x1="23" y1="129.49" x2="372.29" y2="129.51"><stop style="stop-color: #e9e6e6;stop-opacity: 1" offset="0%"></stop><stop style="stop-color: #e6e6e6;stop-opacity: 1" offset="100%"></stop></linearGradient><path d="M153 139C154.33 139 155 139.67 155 141C155 145.2 155 147.53 155 148C155 149.33 154.33 150 153 150C76.2 150 33.53 150 25 150C23.67 150 23 149.33 23 148C23 143.8 23 141.47 23 141C23 139.67 23.67 139 25 139C101.8 139 144.47 139 153 139Z" id="b1T52ons2"></path><linearGradient id="gradienta6TnD8VkFf" gradientUnits="userSpaceOnUse" x1="23" y1="144.46" x2="153.61" y2="144.54"><stop style="stop-color: #e9e6e6;stop-opacity: 1" offset="0%"></stop><stop style="stop-color: #e6e6e6;stop-opacity: 1" offset="100%"></stop></linearGradient><path d="M110 253C111.33 253 112 253.67 112 255C112 259.2 112 261.53 112 262C112 263.33 111.33 264 110 264C59 264 30.67 264 25 264C23.67 264 23 263.33 23 262C23 257.8 23 255.47 23 255C23 253.67 23.67 253 25 253C76 253 104.33 253 110 253Z" id="aq896qdj2"></path><linearGradient id="gradienteen8isnF" gradientUnits="userSpaceOnUse" x1="23" y1="258.42" x2="111.07" y2="258.58"><stop style="stop-color: #e9e6e6;stop-opacity: 1" offset="0%"></stop><stop style="stop-color: #e6e6e6;stop-opacity: 1" offset="100%"></stop></linearGradient><path d="M144 383C145.33 383 146 383.67 146 385C146 389.2 146 391.53 146 392C146 393.33 145.33 394 144 394C72.6 394 32.93 394 25 394C23.67 394 23 393.33 23 392C23 387.8 23 385.47 23 385C23 383.67 23.67 383 25 383C96.4 383 136.07 383 144 383Z" id="bfYM99pwY"></path><linearGradient id="gradientbWbA7aaj1" gradientUnits="userSpaceOnUse" x1="23" y1="388.46" x2="144.71" y2="388.54"><stop style="stop-color: #e9e6e6;stop-opacity: 1" offset="0%"></stop><stop style="stop-color: #e6e6e6;stop-opacity: 1" offset="100%"></stop></linearGradient><path d="M27 282C25.9 282 25 282.9 25 284C25 285.1 25.9 286 27 286C28.1 286 29 285.1 29 284C29 282.9 28.1 282 27 282Z" id="a112Y2QMlJ"></path><path d="M27 585C25.9 585 25 585.9 25 587C25 588.1 25.9 589 27 589C28.1 589 29 588.1 29 587C29 585.9 28.1 585 27 585Z" id="a1Yldq7HE5"></path><path d="M27 412C25.9 412 25 412.9 25 414C25 415.1 25.9 416 27 416C28.1 416 29 415.1 29 414C29 412.9 28.1 412 27 412Z" id="a3sDohK3xy"></path><path d="M27 322C25.9 322 25 322.9 25 324C25 325.1 25.9 326 27 326C28.1 326 29 325.1 29 324C29 322.9 28.1 322 27 322Z" id="f1dcT3EDT8"></path><path d="M27 625C25.9 625 25 625.9 25 627C25 628.1 25.9 629 27 629C28.1 629 29 628.1 29 627C29 625.9 28.1 625 27 625Z" id="a2UklpC5wo"></path><path d="M27 435C25.9 435 25 435.9 25 437C25 438.1 25.9 439 27 439C28.1 439 29 438.1 29 437C29 435.9 28.1 435 27 435Z" id="b2yajmALmS"></path><path d="M27 457C25.9 457 25 457.9 25 459C25 460.1 25.9 461 27 461C28.1 461 29 460.1 29 459C29 457.9 28.1 457 27 457Z" id="aRSVjwrJm"></path></defs><g><g><g><use xlink:href="#i6wyqsQV" opacity="1" fill="url(#gradientdYArGKpGE)"></use><g><use xlink:href="#i6wyqsQV" opacity="1" fill-opacity="0" stroke="#000000" stroke-width="1" stroke-opacity="0"></use></g></g><g><use xlink:href="#d13sBAeggX" opacity="1" fill="url(#gradienta3sb5sEm9)"></use><g><use xlink:href="#d13sBAeggX" opacity="1" fill-opacity="0" stroke="#000000" stroke-width="1" stroke-opacity="0"></use></g></g><g><use xlink:href="#c5wKpXpgL" opacity="1" fill="url(#gradientg2MFaojZPE)"></use><g><use xlink:href="#c5wKpXpgL" opacity="1" fill-opacity="0" stroke="#000000" stroke-width="1" stroke-opacity="0"></use></g></g><g><use xlink:href="#bUFfzATV" opacity="1" fill="url(#gradientdmpA6IWv7)"></use><g><use xlink:href="#bUFfzATV" opacity="1" fill-opacity="0" stroke="#000000" stroke-width="1" stroke-opacity="0"></use></g></g><g><use xlink:href="#k22iacshzG" opacity="1" fill="url(#gradientbbL2ehhgc)"></use><g><use xlink:href="#k22iacshzG" opacity="1" fill-opacity="0" stroke="#000000" stroke-width="1" stroke-opacity="0"></use></g></g><g><use xlink:href="#djHlzRAv" opacity="1" fill="url(#gradienta6Q3516d5)"></use><g><use xlink:href="#djHlzRAv" opacity="1" fill-opacity="0" stroke="#000000" stroke-width="1" stroke-opacity="0"></use></g></g><g><use xlink:href="#a1BFzM2XvY" opacity="1" fill="url(#gradientaD5NsfWpu)"></use><g><use xlink:href="#a1BFzM2XvY" opacity="1" fill-opacity="0" stroke="#000000" stroke-width="1" stroke-opacity="0"></use></g></g><g><use xlink:href="#b1p2ojLo6w" opacity="1" fill="url(#gradienta1kH0tKqy)"></use><g><use xlink:href="#b1p2ojLo6w" opacity="1" fill-opacity="0" stroke="#000000" stroke-width="1" stroke-opacity="0"></use></g></g><g><use xlink:href="#gngpNevpx" opacity="1" fill="url(#gradientbH2ec8VTA)"></use><g><use xlink:href="#gngpNevpx" opacity="1" fill-opacity="0" stroke="#000000" stroke-width="1" stroke-opacity="0"></use></g></g><g><use xlink:href="#c2gILPQ19W" opacity="1" fill="url(#gradientehv8IgNn5)"></use><g><use xlink:href="#c2gILPQ19W" opacity="1" fill-opacity="0" stroke="#000000" stroke-width="1" stroke-opacity="0"></use></g></g><g><use xlink:href="#aAKBeHDZf" opacity="1" fill="url(#gradientb2Qr1hz7VE)"></use><g><use xlink:href="#aAKBeHDZf" opacity="1" fill-opacity="0" stroke="#000000" stroke-width="1" stroke-opacity="0"></use></g></g><g><use xlink:href="#aw6umVE9g" opacity="1" fill="url(#gradientaAgVNEywG)"></use><g><use xlink:href="#aw6umVE9g" opacity="1" fill-opacity="0" stroke="#000000" stroke-width="1" stroke-opacity="0"></use></g></g><g><use xlink:href="#aalnWPHMy" opacity="1" fill="url(#gradienta66PfOchC)"></use><g><use xlink:href="#aalnWPHMy" opacity="1" fill-opacity="0" stroke="#000000" stroke-width="1" stroke-opacity="0"></use></g></g><g><use xlink:href="#bXA5udWKk" opacity="1" fill="url(#gradientgPaVpolyJ)"></use><g><use xlink:href="#bXA5udWKk" opacity="1" fill-opacity="0" stroke="#000000" stroke-width="1" stroke-opacity="0"></use></g></g><g><use xlink:href="#b60Qj5cs4B" opacity="1" fill="url(#gradientb2hj7dLrkP)"></use><g><use xlink:href="#b60Qj5cs4B" opacity="1" fill-opacity="0" stroke="#000000" stroke-width="1" stroke-opacity="0"></use></g></g><g><use xlink:href="#g2sEQDGGJ" opacity="1" fill="url(#gradientczmfcpZme)"></use><g><use xlink:href="#g2sEQDGGJ" opacity="1" fill-opacity="0" stroke="#000000" stroke-width="1" stroke-opacity="0"></use></g></g><g><use xlink:href="#dcvfB0zh2" opacity="1" fill="url(#gradienta4FHIZD3XV)"></use><g><use xlink:href="#dcvfB0zh2" opacity="1" fill-opacity="0" stroke="#000000" stroke-width="1" stroke-opacity="0"></use></g></g><g><use xlink:href="#b1e4iquiXt" opacity="1" fill="url(#gradienta34u3pNhca)"></use><g><use xlink:href="#b1e4iquiXt" opacity="1" fill-opacity="0" stroke="#000000" stroke-width="1" stroke-opacity="0"></use></g></g><g><use xlink:href="#baD1mNziG" opacity="1" fill="url(#gradienta6qot1YrL3)"></use><g><use xlink:href="#baD1mNziG" opacity="1" fill-opacity="0" stroke="#000000" stroke-width="1" stroke-opacity="0"></use></g></g><g><use xlink:href="#a1h4RW2994" opacity="1" fill="url(#gradientk4FAfSaFlL)"></use><g><use xlink:href="#a1h4RW2994" opacity="1" fill-opacity="0" stroke="#000000" stroke-width="1" stroke-opacity="0"></use></g></g><g><use xlink:href="#b3upFmmueC" opacity="1" fill="url(#gradientaA2WDUwV3)"></use><g><use xlink:href="#b3upFmmueC" opacity="1" fill-opacity="0" stroke="#000000" stroke-width="1" stroke-opacity="0"></use></g></g><g><use xlink:href="#f3GWrXaibN" opacity="1" fill="url(#gradientbjbVaqFNi)"></use><g><use xlink:href="#f3GWrXaibN" opacity="1" fill-opacity="0" stroke="#000000" stroke-width="1" stroke-opacity="0"></use></g></g><g><use xlink:href="#mHME88BAK" opacity="1" fill="url(#gradienta4eKsx8sH)"></use><g><use xlink:href="#mHME88BAK" opacity="1" fill-opacity="0" stroke="#000000" stroke-width="1" stroke-opacity="0"></use></g></g><g><use xlink:href="#aHCpLpKXH" opacity="1" fill="url(#gradienta43Cyppsec)"></use><g><use xlink:href="#aHCpLpKXH" opacity="1" fill-opacity="0" stroke="#000000" stroke-width="1" stroke-opacity="0"></use></g></g><g><use xlink:href="#cJkiAYxIF" opacity="1" fill="url(#gradienta1BaItEYq)"></use><g><use xlink:href="#cJkiAYxIF" opacity="1" fill-opacity="0" stroke="#000000" stroke-width="1" stroke-opacity="0"></use></g></g><g><use xlink:href="#bogC4EnYU" opacity="1" fill="url(#gradientbqgOQaPRW)"></use><g><use xlink:href="#bogC4EnYU" opacity="1" fill-opacity="0" stroke="#000000" stroke-width="1" stroke-opacity="0"></use></g></g><g><use xlink:href="#aJUmj8Sho" opacity="1" fill="url(#gradienta2njHk66jy)"></use><g><use xlink:href="#aJUmj8Sho" opacity="1" fill-opacity="0" stroke="#000000" stroke-width="1" stroke-opacity="0"></use></g></g><g><use xlink:href="#fpoJJcL9A" opacity="1" fill="url(#gradientfmb0oYr4x)"></use><g><use xlink:href="#fpoJJcL9A" opacity="1" fill-opacity="0" stroke="#000000" stroke-width="1" stroke-opacity="0"></use></g></g><g><use xlink:href="#c2kRBFVxq0" opacity="1" fill="url(#gradientb3bXVTzEPF)"></use><g><use xlink:href="#c2kRBFVxq0" opacity="1" fill-opacity="0" stroke="#000000" stroke-width="1" stroke-opacity="0"></use></g></g><g><use xlink:href="#gQuW4675P" opacity="1" fill="url(#gradientf8tICJLr7N)"></use><g><use xlink:href="#gQuW4675P" opacity="1" fill-opacity="0" stroke="#000000" stroke-width="1" stroke-opacity="0"></use></g></g><g><use xlink:href="#ddqh1DhBK" opacity="1" fill="url(#gradiente2jdOlvoU)"></use><g><use xlink:href="#ddqh1DhBK" opacity="1" fill-opacity="0" stroke="#000000" stroke-width="1" stroke-opacity="0"></use></g></g><g><use xlink:href="#dJA6Sjowf" opacity="1" fill="url(#gradientcMXmxcbN5)"></use><g><use xlink:href="#dJA6Sjowf" opacity="1" fill-opacity="0" stroke="#000000" stroke-width="1" stroke-opacity="0"></use></g></g><g><use xlink:href="#a2J39sDmH" opacity="1" fill="url(#gradienta1nRAdhaQ)"></use><g><use xlink:href="#a2J39sDmH" opacity="1" fill-opacity="0" stroke="#000000" stroke-width="1" stroke-opacity="0"></use></g></g><g><use xlink:href="#cqzfp6C" opacity="1" fill="url(#gradientaoqMl8OEa)"></use><g><use xlink:href="#cqzfp6C" opacity="1" fill-opacity="0" stroke="#000000" stroke-width="1" stroke-opacity="0"></use></g></g><g><use xlink:href="#aAbviU9Rn" opacity="1" fill="url(#gradienta1q3ECQCJJ)"></use><g><use xlink:href="#aAbviU9Rn" opacity="1" fill-opacity="0" stroke="#000000" stroke-width="1" stroke-opacity="0"></use></g></g><g><use xlink:href="#a41C6PXS8" opacity="1" fill="url(#gradientj5NufuSQf0)"></use><g><use xlink:href="#a41C6PXS8" opacity="1" fill-opacity="0" stroke="#000000" stroke-width="1" stroke-opacity="0"></use></g></g><g><use xlink:href="#b54ThMggof" opacity="1" fill="url(#gradiente6m8yMT87)"></use><g><use xlink:href="#b54ThMggof" opacity="1" fill-opacity="0" stroke="#000000" stroke-width="1" stroke-opacity="0"></use></g></g><g><use xlink:href="#eR1uR16uI" opacity="1" fill="url(#gradientl15gyMi6t0)"></use><g><use xlink:href="#eR1uR16uI" opacity="1" fill-opacity="0" stroke="#000000" stroke-width="1" stroke-opacity="0"></use></g></g><g><use xlink:href="#b4VUmHmmAR" opacity="1" fill="url(#gradientb1UrA6mjIo)"></use><g><use xlink:href="#b4VUmHmmAR" opacity="1" fill-opacity="0" stroke="#000000" stroke-width="1" stroke-opacity="0"></use></g></g><g><use xlink:href="#edl301Rwg" opacity="1" fill="url(#gradientb70AIUgAL)"></use><g><use xlink:href="#edl301Rwg" opacity="1" fill-opacity="0" stroke="#000000" stroke-width="1" stroke-opacity="0"></use></g></g><g><use xlink:href="#b8gq7DkOhX" opacity="1" fill="url(#gradienta454X56fqv)"></use><g><use xlink:href="#b8gq7DkOhX" opacity="1" fill-opacity="0" stroke="#000000" stroke-width="1" stroke-opacity="0"></use></g></g><g><use xlink:href="#dHrj1ThiG" opacity="1" fill="url(#gradienti3ylqFjLz4)"></use><g><use xlink:href="#dHrj1ThiG" opacity="1" fill-opacity="0" stroke="#000000" stroke-width="1" stroke-opacity="0"></use></g></g><g><use xlink:href="#d1YIfR91xp" opacity="1" fill="url(#gradientaq0726Wbn)"></use><g><use xlink:href="#d1YIfR91xp" opacity="1" fill-opacity="0" stroke="#000000" stroke-width="1" stroke-opacity="0"></use></g></g><g><use xlink:href="#f58OfBymya" opacity="1" fill="url(#gradientaA8XqQ3Ws)"></use><g><use xlink:href="#f58OfBymya" opacity="1" fill-opacity="0" stroke="#000000" stroke-width="1" stroke-opacity="0"></use></g></g><g><use xlink:href="#b1T52ons2" opacity="1" fill="url(#gradienta6TnD8VkFf)"></use><g><use xlink:href="#b1T52ons2" opacity="1" fill-opacity="0" stroke="#000000" stroke-width="1" stroke-opacity="0"></use></g></g><g><use xlink:href="#aq896qdj2" opacity="1" fill="url(#gradienteen8isnF)"></use><g><use xlink:href="#aq896qdj2" opacity="1" fill-opacity="0" stroke="#000000" stroke-width="1" stroke-opacity="0"></use></g></g><g><use xlink:href="#bfYM99pwY" opacity="1" fill="url(#gradientbWbA7aaj1)"></use><g><use xlink:href="#bfYM99pwY" opacity="1" fill-opacity="0" stroke="#000000" stroke-width="1" stroke-opacity="0"></use></g></g><g><use xlink:href="#a112Y2QMlJ" opacity="1" fill="#5c5b5b" fill-opacity="1"></use><g><use xlink:href="#a112Y2QMlJ" opacity="1" fill-opacity="0" stroke="#000000" stroke-width="1" stroke-opacity="0"></use></g></g><g><use xlink:href="#a1Yldq7HE5" opacity="1" fill="#5c5b5b" fill-opacity="1"></use><g><use xlink:href="#a1Yldq7HE5" opacity="1" fill-opacity="0" stroke="#000000" stroke-width="1" stroke-opacity="0"></use></g></g><g><use xlink:href="#a3sDohK3xy" opacity="1" fill="#5c5b5b" fill-opacity="1"></use><g><use xlink:href="#a3sDohK3xy" opacity="1" fill-opacity="0" stroke="#000000" stroke-width="1" stroke-opacity="0"></use></g></g><g><use xlink:href="#f1dcT3EDT8" opacity="1" fill="#5c5b5b" fill-opacity="1"></use><g><use xlink:href="#f1dcT3EDT8" opacity="1" fill-opacity="0" stroke="#000000" stroke-width="1" stroke-opacity="0"></use></g></g><g><use xlink:href="#a2UklpC5wo" opacity="1" fill="#5c5b5b" fill-opacity="1"></use><g><use xlink:href="#a2UklpC5wo" opacity="1" fill-opacity="0" stroke="#000000" stroke-width="1" stroke-opacity="0"></use></g></g><g><use xlink:href="#b2yajmALmS" opacity="1" fill="#5c5b5b" fill-opacity="1"></use><g><use xlink:href="#b2yajmALmS" opacity="1" fill-opacity="0" stroke="#000000" stroke-width="1" stroke-opacity="0"></use></g></g><g><use xlink:href="#aRSVjwrJm" opacity="1" fill="#5c5b5b" fill-opacity="1"></use><g><use xlink:href="#aRSVjwrJm" opacity="1" fill-opacity="0" stroke="#000000" stroke-width="1" stroke-opacity="0"></use></g></g></g></g></svg>